<?xml version="1.0" encoding="utf-8"?><!-- Uploaded to: SVG Repo, www.svgrepo.com, Generator: SVG Repo Mixer Tools -->
<svg version="1.1" id="Uploaded to svgrepo.com" xmlns="http://www.w3.org/2000/svg" xmlns:xlink="http://www.w3.org/1999/xlink" 
	 width="800px" height="800px" viewBox="0 0 32 32" xml:space="preserve">
<style type="text/css">
	.bentblocks_een{fill:#0B1719;}
</style>
<path class="bentblocks_een" d="M25.151,13.296c0.074,0.008,0.148,0.012,0.223,0.012c0.51,0,1.019-0.188,1.407-0.575l0.636-0.636
	c0.778-0.778,0.778-2.051,0-2.828l-4.685-4.685C22.343,4.194,21.83,4,21.318,4s-1.025,0.194-1.414,0.583L19.267,5.22
	c-0.444,0.444-0.625,1.047-0.563,1.629c-0.074-0.008-0.148-0.012-0.223-0.012c-0.51,0-1.019,0.188-1.407,0.575l-0.636,0.636
	c-0.443,0.444-0.625,1.047-0.563,1.629c-0.074-0.008-0.148-0.012-0.223-0.012c-0.51,0-1.019,0.188-1.407,0.575l-0.636,0.636
	c-0.444,0.444-0.625,1.047-0.563,1.629c-0.074-0.008-0.148-0.012-0.223-0.012c-0.51,0-1.019,0.188-1.407,0.575l-0.636,0.636
	c-0.778,0.778-0.778,2.051,0,2.828l1.635,1.635L4,26.586V28h1.414l8.417-8.417l1.635,1.635c0.389,0.389,0.902,0.583,1.414,0.583
	c0.513,0,1.025-0.194,1.414-0.583l0.636-0.636c0.444-0.444,0.625-1.047,0.563-1.629c0.074,0.008,0.148,0.012,0.223,0.012
	c0.51,0,1.019-0.188,1.407-0.575l0.636-0.636c0.444-0.444,0.625-1.047,0.563-1.629c0.074,0.008,0.148,0.012,0.223,0.012
	c0.51,0,1.019-0.188,1.407-0.575l0.636-0.636C25.032,14.481,25.213,13.877,25.151,13.296z M23.174,13.511l-0.638,0.625l-2.454-0.262
	l0.264,2.466l-0.638,0.625l-2.454-0.262l0.264,2.466l-0.636,0.636l-4.685-4.685l0.638-0.625l2.454,0.262l-0.264-2.466l0.638-0.625
	l2.454,0.262l-0.264-2.466l0.638-0.625L20.945,9.1l-0.264-2.466l0.631-0.633C21.313,6,21.315,6,21.318,6l0-0.002l4.685,4.685
	l-0.638,0.625l-2.454-0.262L23.174,13.511z M20,24h2v4h-2V24z M24,20h4v2h-4V20z M12,8h-2V4h2V8z M8,12H4v-2h4V12z M6,6H4V4h2V6z
	 M26,26h2v2h-2V26z M30,14v2h-2v-2H30z M18,4h-2V2h2V4z M5,17v-2h2v2H5z M13,25h2v2h-2V25z"/>
</svg>