<svg width="24" height="24" viewBox="0 0 24 24" fill="none" xmlns="http://www.w3.org/2000/svg">
<g id="Icon - Analytic">
<path id="Vector" d="M20.8917 6C20.5641 6.00011 20.241 6.07831 19.9481 6.2284C19.6552 6.37849 19.4006 6.59633 19.2044 6.86463C19.0082 7.13294 18.8759 7.4443 18.818 7.77402C18.7601 8.10374 18.7781 8.44272 18.8707 8.76406L15.6008 12.1072C15.1695 11.9603 14.7034 11.9603 14.2721 12.1072L11.848 9.62841C11.9277 9.31013 11.9353 8.97741 11.87 8.6557C11.8047 8.33398 11.6684 8.03178 11.4714 7.77221C11.2744 7.51263 11.0219 7.30256 10.7334 7.15804C10.4448 7.01353 10.1277 6.9384 9.80637 6.9384C9.48504 6.9384 9.16796 7.01353 8.87938 7.15804C8.5908 7.30256 8.33836 7.51263 8.14136 7.77221C7.94435 8.03178 7.80801 8.33398 7.74274 8.6557C7.67747 8.97741 7.68501 9.31013 7.76478 9.62841L3.71047 13.7712C3.26035 13.635 2.77867 13.656 2.34155 13.831C1.90443 14.006 1.53682 14.325 1.29681 14.7375C1.05681 15.15 0.958097 15.6325 1.01629 16.1088C1.07448 16.5851 1.28625 17.028 1.61813 17.3675C1.95001 17.7069 2.38306 17.9236 2.84885 17.9833C3.31463 18.0429 3.78657 17.9421 4.19008 17.6969C4.59358 17.4516 4.90564 17.0758 5.07691 16.6289C5.24819 16.182 5.26892 15.6894 5.13582 15.2291L9.13882 11.1365C9.57005 11.2835 10.0363 11.2835 10.4675 11.1365L12.8921 13.6157C12.8123 13.934 12.8048 14.2667 12.8701 14.5884C12.9353 14.9101 13.0717 15.2123 13.2687 15.4719C13.4657 15.7315 13.7181 15.9415 14.0067 16.0861C14.2953 16.2306 14.6124 16.3057 14.9337 16.3057C15.255 16.3057 15.5721 16.2306 15.8607 16.0861C16.1493 15.9415 16.4017 15.7315 16.5987 15.4719C16.7957 15.2123 16.9321 14.9101 16.9973 14.5884C17.0626 14.2667 17.0551 13.934 16.9753 13.6157L20.2961 10.222C20.586 10.3094 20.8909 10.3321 21.1901 10.2885C21.4894 10.2448 21.7759 10.1358 22.0303 9.96897C22.2847 9.80211 22.5011 9.58123 22.6647 9.32134C22.8283 9.06145 22.9353 8.76861 22.9784 8.46271C23.0216 8.15681 22.9999 7.845 22.9148 7.54842C22.8297 7.25185 22.6832 6.97746 22.4853 6.74387C22.2874 6.51028 22.0426 6.32296 21.7677 6.19461C21.4927 6.06626 21.1939 5.99989 20.8917 6Z" fill="#0E7EE4"/>
</g>
</svg>
