<svg width="24" height="24" viewBox="0 0 24 24" fill="none" xmlns="http://www.w3.org/2000/svg">
<g id="Icon - Automation">
<path id="Vector" d="M19.9 12.66C19.7397 12.4775 19.6513 12.2429 19.6513 12C19.6513 11.7571 19.7397 11.5225 19.9 11.34L21.18 9.9C21.3211 9.74267 21.4087 9.54471 21.4302 9.33451C21.4518 9.12431 21.4062 8.91269 21.3 8.73L19.3 5.27C19.1949 5.08752 19.0349 4.94288 18.8428 4.85669C18.6506 4.7705 18.4362 4.74716 18.23 4.79L16.35 5.17C16.1108 5.21943 15.8618 5.17959 15.6499 5.058C15.438 4.93641 15.278 4.74149 15.2 4.51L14.59 2.68C14.5229 2.48138 14.3951 2.30887 14.2246 2.18684C14.0542 2.06482 13.8497 1.99946 13.64 2H9.64002C9.42195 1.98862 9.20615 2.04893 9.02558 2.17172C8.84501 2.2945 8.7096 2.47302 8.64002 2.68L8.08002 4.51C8.00202 4.74149 7.84199 4.93641 7.63013 5.058C7.41827 5.17959 7.16924 5.21943 6.93002 5.17L5.00002 4.79C4.80457 4.76238 4.60532 4.79322 4.42737 4.87864C4.24941 4.96406 4.10072 5.10023 4.00002 5.27L2.00002 8.73C1.89118 8.91065 1.84224 9.12109 1.8602 9.33123C1.87816 9.54136 1.9621 9.74044 2.10002 9.9L3.37002 11.34C3.53034 11.5225 3.61875 11.7571 3.61875 12C3.61875 12.2429 3.53034 12.4775 3.37002 12.66L2.10002 14.1C1.9621 14.2596 1.87816 14.4586 1.8602 14.6688C1.84224 14.8789 1.89118 15.0894 2.00002 15.27L4.00002 18.73C4.10512 18.9125 4.26514 19.0571 4.45727 19.1433C4.6494 19.2295 4.86384 19.2528 5.07002 19.21L6.95002 18.83C7.18924 18.7806 7.43827 18.8204 7.65013 18.942C7.86199 19.0636 8.02202 19.2585 8.10002 19.49L8.71002 21.32C8.7796 21.527 8.91501 21.7055 9.09558 21.8283C9.27615 21.9511 9.49195 22.0114 9.71002 22H13.71C13.9197 22.0005 14.1242 21.9352 14.2946 21.8132C14.4651 21.6911 14.5929 21.5186 14.66 21.32L15.27 19.49C15.348 19.2585 15.508 19.0636 15.7199 18.942C15.9318 18.8204 16.1808 18.7806 16.42 18.83L18.3 19.21C18.5062 19.2528 18.7206 19.2295 18.9128 19.1433C19.1049 19.0571 19.2649 18.9125 19.37 18.73L21.37 15.27C21.4762 15.0873 21.5218 14.8757 21.5002 14.6655C21.4787 14.4553 21.3911 14.2573 21.25 14.1L19.9 12.66ZM18.41 14L19.21 14.9L17.93 17.12L16.75 16.88C16.0298 16.7328 15.2806 16.8551 14.6446 17.2238C14.0086 17.5925 13.5302 18.1818 13.3 18.88L12.92 20H10.36L10 18.86C9.76987 18.1618 9.2914 17.5725 8.65542 17.2038C8.01945 16.8351 7.27024 16.7128 6.55002 16.86L5.37002 17.1L4.07002 14.89L4.87002 13.99C5.36197 13.44 5.63395 12.7279 5.63395 11.99C5.63395 11.2521 5.36197 10.54 4.87002 9.99L4.07002 9.09L5.35002 6.89L6.53002 7.13C7.25024 7.27722 7.99945 7.15488 8.63542 6.7862C9.2714 6.41752 9.74987 5.82816 9.98002 5.13L10.36 4H12.92L13.3 5.14C13.5302 5.83816 14.0086 6.42752 14.6446 6.7962C15.2806 7.16488 16.0298 7.28722 16.75 7.14L17.93 6.9L19.21 9.12L18.41 10.02C17.9236 10.5688 17.655 11.2767 17.655 12.01C17.655 12.7433 17.9236 13.4512 18.41 14Z" fill="#0E7EE4"/>
<path id="Vector 97" d="M10 14.1169V9.8831C10 9.49445 10.424 9.25439 10.7572 9.45435L14.2854 11.5713C14.6091 11.7655 14.6091 12.2345 14.2854 12.4287L10.7572 14.5457C10.424 14.7456 10 14.5056 10 14.1169Z" stroke="#0E7EE4" stroke-width="2" stroke-linejoin="round"/>
</g>
</svg>
