<svg width="24" height="24" viewBox="0 0 24 24" fill="none" xmlns="http://www.w3.org/2000/svg">
<g id="Group 1762">
<path id="Vector 73" d="M21.1868 1.14442C22.2954 1.14442 22.6682 2.81847 22.7936 3.94433C22.8549 4.495 22.4079 4.94445 21.8539 4.94445H19.5164M21.1868 1.14442C19.5164 1.14442 19.5164 3.31563 19.5164 3.31564C19.5164 3.31564 19.5164 3.31564 19.5164 3.31564V4.94445M21.1868 1.14442H6.73169C6.71762 1.14442 6.70428 1.14415 6.69021 1.14379C6.51531 1.13941 5.25472 1.12829 4.48348 1.68723C3.65338 2.28883 3.36993 3.31616 3.36993 3.85809C3.36993 4.40002 3.36993 19.5998 3.36993 19.5998M17.8461 22.8566C19.5164 22.8566 19.5164 21.2282 19.5164 21.2282C19.5164 21.2282 19.5164 21.2282 19.5164 21.2282V4.94445M17.8461 22.8566C16.7905 22.8566 16.402 21.5557 16.259 20.5983C16.1772 20.0503 15.7266 19.5998 15.1726 19.5998L3.36993 19.5998M17.8461 22.8566C17.8461 22.8566 5.59703 22.8571 3.36993 22.8571C1.96074 22.8571 1.4432 21.553 1.25314 20.5951C1.1453 20.0516 1.59199 19.5998 2.14606 19.5998L3.36993 19.5998" stroke="#0E7EE4" stroke-width="2"/>
<line id="Line 332" x1="12.1647" y1="6.65854" x2="16.846" y2="6.65854" stroke="#0E7EE4" stroke-width="2" stroke-linecap="round"/>
<line id="Line 333" x1="12.1647" y1="9.91522" x2="16.846" y2="9.91522" stroke="#0E7EE4" stroke-width="2" stroke-linecap="round"/>
<line id="Line 334" x1="6.59717" y1="13.1724" x2="16.8463" y2="13.1724" stroke="#0E7EE4" stroke-width="2" stroke-linecap="round"/>
<line id="Line 335" x1="6.59717" y1="16.429" x2="16.8463" y2="16.429" stroke="#0E7EE4" stroke-width="2" stroke-linecap="round"/>
<path id="Vector" d="M9.65569 8.34228C9.65569 8.77483 9.51142 9.1473 9.22288 9.45969C8.93434 9.77209 8.55953 9.96504 8.09845 10.0385V10.7807C8.09845 10.8202 8.0854 10.8527 8.0593 10.8782C8.0332 10.9036 7.99985 10.9164 7.95926 10.9164H7.37203C7.33433 10.9164 7.30171 10.9029 7.27416 10.8761C7.24661 10.8492 7.23284 10.8174 7.23284 10.7807V10.0385C7.04144 10.0131 6.85658 9.96928 6.67823 9.90708C6.49989 9.84488 6.35272 9.78198 6.23673 9.71837C6.12073 9.65476 6.01344 9.58691 5.91484 9.51482C5.81624 9.44273 5.74882 9.38972 5.71257 9.3558C5.67633 9.32187 5.65095 9.29643 5.63645 9.27946C5.58715 9.22009 5.58425 9.16214 5.62775 9.1056L6.07578 8.53311C6.09608 8.50484 6.12943 8.48788 6.17583 8.48222C6.21933 8.47657 6.25413 8.48929 6.28023 8.52039L6.28893 8.52887C6.61661 8.80875 6.96895 8.98545 7.34593 9.05895C7.45323 9.08157 7.56052 9.09288 7.66782 9.09288C7.90271 9.09288 8.10933 9.03209 8.28767 8.91053C8.46601 8.78896 8.55518 8.61651 8.55518 8.39317C8.55518 8.31401 8.53343 8.23909 8.48993 8.16841C8.44644 8.09774 8.39786 8.03837 8.34422 7.99031C8.29057 7.94225 8.20575 7.88924 8.08975 7.83128C7.97376 7.77333 7.87806 7.72809 7.80266 7.69558C7.72727 7.66307 7.61127 7.61713 7.45468 7.55776C7.34158 7.51253 7.25241 7.47719 7.18716 7.45174C7.12192 7.4263 7.03274 7.38884 6.91965 7.33937C6.80655 7.28989 6.71593 7.24607 6.64779 7.20791C6.57964 7.16974 6.49772 7.11956 6.40202 7.05736C6.30632 6.99517 6.22875 6.93509 6.16931 6.87713C6.10986 6.81918 6.04679 6.74992 5.98009 6.66934C5.91339 6.58877 5.86192 6.50678 5.82567 6.42339C5.78942 6.33999 5.75897 6.24598 5.73432 6.14138C5.70967 6.03678 5.69735 5.92652 5.69735 5.81061C5.69735 5.42047 5.83944 5.07839 6.12363 4.78437C6.40782 4.49036 6.77756 4.30094 7.23284 4.21613V3.45281C7.23284 3.41606 7.24661 3.38425 7.27416 3.35739C7.30171 3.33054 7.33433 3.31711 7.37203 3.31711H7.95926C7.99985 3.31711 8.0332 3.32983 8.0593 3.35527C8.0854 3.38072 8.09845 3.41323 8.09845 3.45281V4.19916C8.26374 4.21613 8.42396 4.24864 8.57911 4.2967C8.73425 4.34476 8.86039 4.39211 8.95754 4.43876C9.05469 4.48541 9.14676 4.53842 9.23375 4.59778C9.32075 4.65715 9.3773 4.69815 9.4034 4.72076C9.4295 4.74338 9.45125 4.76317 9.46864 4.78013C9.51794 4.83102 9.52519 4.88474 9.49039 4.94128L9.13806 5.56041C9.11486 5.60282 9.08151 5.62544 9.03801 5.62826C8.99741 5.63674 8.95827 5.62685 8.92057 5.59858C8.91187 5.5901 8.89084 5.57313 8.85749 5.54769C8.82415 5.52225 8.7676 5.48479 8.68785 5.43531C8.6081 5.38584 8.52328 5.34061 8.43339 5.29961C8.34349 5.25862 8.23547 5.22187 8.10933 5.18936C7.98318 5.15684 7.85921 5.14059 7.73742 5.14059C7.46193 5.14059 7.23719 5.20137 7.06319 5.32294C6.8892 5.4445 6.8022 5.60141 6.8022 5.79365C6.8022 5.86715 6.81453 5.935 6.83918 5.9972C6.86383 6.0594 6.9066 6.11806 6.9675 6.17319C7.02839 6.22832 7.08567 6.27496 7.13932 6.31313C7.19296 6.35129 7.27416 6.39511 7.38291 6.44459C7.49165 6.49406 7.57937 6.53223 7.64607 6.55909C7.71277 6.58594 7.81426 6.62482 7.95056 6.6757C8.10425 6.73225 8.2217 6.77677 8.30289 6.80928C8.38409 6.8418 8.49428 6.89127 8.63348 6.95771C8.77267 7.02414 8.88214 7.08422 8.96189 7.13793C9.04164 7.19165 9.13153 7.26233 9.23158 7.34997C9.33162 7.43761 9.40847 7.52737 9.46212 7.61925C9.51577 7.71113 9.56144 7.81927 9.59914 7.94366C9.63684 8.06805 9.65569 8.20092 9.65569 8.34228Z" fill="#0E7EE4"/>
</g>
</svg>
