<svg width="19" height="20" viewBox="0 0 19 20" fill="none" xmlns="http://www.w3.org/2000/svg">
<g id="Group">
<path id="Vector" d="M2.03125 7C1.49253 7 0.975872 6.78929 0.594939 6.41421C0.214006 6.03914 0 5.53043 0 5V2C0 1.46957 0.214006 0.960859 0.594939 0.585786C0.975872 0.210714 1.49253 0 2.03125 0H6.09375C6.63247 0 7.14912 0.210714 7.53006 0.585786C7.91099 0.960859 8.125 1.46957 8.125 2V5C8.125 5.53043 7.91099 6.03914 7.53006 6.41421C7.14912 6.78929 6.63247 7 6.09375 7H2.03125ZM2.03125 5H6.09375V2H2.03125V5ZM2.03125 20C1.49253 20 0.975872 19.7893 0.594939 19.4142C0.214006 19.0391 0 18.5304 0 18V10C0 9.46957 0.214006 8.96086 0.594939 8.58579C0.975872 8.21071 1.49253 8 2.03125 8H6.09375C6.63247 8 7.14912 8.21071 7.53006 8.58579C7.91099 8.96086 8.125 9.46957 8.125 10V18C8.125 18.5304 7.91099 19.0391 7.53006 19.4142C7.14912 19.7893 6.63247 20 6.09375 20H2.03125ZM2.03125 18H6.09375V10H2.03125V18ZM10.1562 18C10.1562 18.5304 10.3703 19.0391 10.7512 19.4142C11.1321 19.7893 11.6488 20 12.1875 20H16.25C16.7887 20 17.3054 19.7893 17.6863 19.4142C18.0672 19.0391 18.2812 18.5304 18.2812 18V16C18.2812 15.4696 18.0672 14.9609 17.6863 14.5858C17.3054 14.2107 16.7887 14 16.25 14H12.1875C11.6488 14 11.1321 14.2107 10.7512 14.5858C10.3703 14.9609 10.1562 15.4696 10.1562 16V18ZM16.25 18H12.1875V16H16.25V18ZM12.1875 12C11.6488 12 11.1321 11.7893 10.7512 11.4142C10.3703 11.0391 10.1562 10.5304 10.1562 10V2C10.1562 1.46957 10.3703 0.960859 10.7512 0.585786C11.1321 0.210714 11.6488 0 12.1875 0H16.25C16.7887 0 17.3054 0.210714 17.6863 0.585786C18.0672 0.960859 18.2812 1.46957 18.2812 2V10C18.2812 10.5304 18.0672 11.0391 17.6863 11.4142C17.3054 11.7893 16.7887 12 16.25 12H12.1875ZM12.1875 10H16.25V2H12.1875V10Z" fill="#0E7EE4"/>
</g>
</svg>
