<svg width="20" height="20" viewBox="0 0 20 20" fill="none" xmlns="http://www.w3.org/2000/svg">
<g id="Group">
<path id="Vector" d="M9.51901 0.250275C10.2645 0.258275 11.0069 0.343275 11.7351 0.503275C11.89 0.537324 12.0303 0.618177 12.1363 0.734535C12.2422 0.850893 12.3086 0.996942 12.3262 1.15227L12.4989 2.67927C12.5232 2.89456 12.5986 3.1012 12.7189 3.28258C12.8392 3.46396 13.001 3.615 13.1914 3.72356C13.3818 3.83212 13.5954 3.89517 13.815 3.90762C14.0346 3.92008 14.2542 3.8816 14.456 3.79527L15.8789 3.18027C16.0233 3.11762 16.184 3.10072 16.3386 3.13189C16.4933 3.16306 16.6343 3.24077 16.7421 3.35427C17.7699 4.43536 18.5352 5.73188 18.9806 7.14627C19.0273 7.29491 19.0259 7.45417 18.9766 7.60198C18.9272 7.7498 18.8325 7.87885 18.7053 7.97127L17.4439 8.88727C17.2665 9.01557 17.1223 9.18317 17.0229 9.37652C16.9235 9.56988 16.8717 9.78355 16.8717 10.0003C16.8717 10.217 16.9235 10.4307 17.0229 10.624C17.1223 10.8174 17.2665 10.985 17.4439 11.1133L18.7064 12.0283C18.8339 12.1206 18.929 12.2498 18.9785 12.3978C19.028 12.5459 19.0294 12.7054 18.9826 12.8543C18.5371 14.2686 17.7718 15.5651 16.7442 16.6463C16.6366 16.7595 16.496 16.8372 16.3418 16.8685C16.1875 16.8998 16.0272 16.8833 15.8829 16.8213L14.4539 16.2043C14.2524 16.1173 14.0329 16.0782 13.8133 16.0902C13.5936 16.1023 13.3798 16.1651 13.1894 16.2735C12.9989 16.382 12.8371 16.5331 12.7169 16.7146C12.5968 16.8961 12.5217 17.1029 12.4978 17.3183L12.3262 18.8443C12.3089 18.9979 12.2438 19.1425 12.1398 19.2584C12.0358 19.3742 11.898 19.4555 11.7453 19.4913C10.2742 19.8359 8.7415 19.8359 7.27042 19.4913C7.11767 19.4555 6.97987 19.3742 6.87588 19.2584C6.77189 19.1425 6.70679 18.9979 6.68948 18.8443L6.51886 17.3203C6.49398 17.1054 6.41825 16.8994 6.29777 16.7186C6.17729 16.5378 6.01542 16.3874 5.82516 16.2795C5.63491 16.1715 5.42158 16.109 5.20232 16.097C4.98307 16.085 4.76401 16.1238 4.56276 16.2103L3.13479 16.8263C2.99035 16.8886 2.82983 16.9052 2.67538 16.8738C2.52094 16.8425 2.38018 16.7647 2.27253 16.6513C1.24442 15.5689 0.479072 14.271 0.0340916 12.8553C-0.0127324 12.7064 -0.0112902 12.5469 0.0382178 12.3988C0.0877258 12.2508 0.18284 12.1216 0.310341 12.0293L1.57276 11.1133C1.75034 10.9851 1.89476 10.8175 1.9943 10.6242C2.09384 10.4308 2.14572 10.2171 2.14572 10.0003C2.14572 9.78348 2.09384 9.56974 1.9943 9.37637C1.89476 9.183 1.75034 9.01544 1.57276 8.88727L0.310341 7.97327C0.18302 7.88079 0.0881076 7.75156 0.0387846 7.60354C-0.0105384 7.45552 -0.0118237 7.29605 0.0351072 7.14727C0.480483 5.7329 1.24582 4.43638 2.27354 3.35527C2.38139 3.24177 2.52239 3.16406 2.67704 3.13289C2.83169 3.10172 2.99236 3.11862 3.13683 3.18127L4.5587 3.79627C4.76083 3.88254 4.98069 3.92093 5.20062 3.90836C5.42056 3.89579 5.63443 3.8326 5.82505 3.72387C6.01568 3.61514 6.17776 3.46391 6.29825 3.28231C6.41875 3.10072 6.4943 2.89384 6.51886 2.67827L6.69151 1.15227C6.70894 0.996629 6.77541 0.850258 6.8816 0.733689C6.98778 0.617119 7.12836 0.536199 7.28362 0.502275C8.01182 0.343275 8.75628 0.259275 9.51901 0.250275ZM9.51901 1.75027C9.05831 1.7556 8.59866 1.79471 8.14386 1.86727L8.03315 2.84427C7.98245 3.29384 7.82513 3.72537 7.5739 4.10406C7.32266 4.48275 6.98454 4.798 6.58681 5.02436C6.18908 5.25072 5.74288 5.38187 5.28421 5.40721C4.82554 5.43256 4.36723 5.3514 3.94628 5.17027L3.03425 4.77627C2.4533 5.47039 1.99091 6.25295 1.66518 7.09327L2.47565 7.68027C2.84556 7.94794 3.14631 8.29755 3.3536 8.70084C3.56089 9.10412 3.6689 9.54978 3.6689 10.0018C3.6689 10.4538 3.56089 10.8994 3.3536 11.3027C3.14631 11.706 2.84556 12.0556 2.47565 12.3233L1.66417 12.9113C1.98917 13.7533 2.45229 14.5373 3.03323 15.2333L3.95237 14.8363C4.37232 14.6557 4.82946 14.5748 5.28698 14.6C5.7445 14.6252 6.18962 14.7558 6.58651 14.9813C6.98341 15.2068 7.32099 15.5209 7.57207 15.8983C7.82316 16.2757 7.98074 16.7059 8.03214 17.1543L8.14386 18.1383C9.04675 18.2883 9.96995 18.2883 10.8728 18.1383L10.9846 17.1543C11.0351 16.7054 11.1922 16.2744 11.443 15.8963C11.6939 15.5181 12.0315 15.2034 12.4287 14.9774C12.8259 14.7514 13.2714 14.6205 13.7294 14.5953C14.1875 14.5701 14.6451 14.6513 15.0653 14.8323L15.9845 15.2283C16.5651 14.5337 17.0272 13.7509 17.3525 12.9103L16.5421 12.3223C16.1722 12.0546 15.8714 11.705 15.6641 11.3017C15.4568 10.8984 15.3488 10.4528 15.3488 10.0008C15.3488 9.54878 15.4568 9.10312 15.6641 8.69983C15.8714 8.29655 16.1722 7.94694 16.5421 7.67927L17.3505 7.09227C17.0248 6.25195 16.5624 5.46939 15.9814 4.77527L15.0714 5.16827C14.6507 5.34962 14.1926 5.43102 13.734 5.40589C13.2754 5.38076 12.8293 5.24981 12.4316 5.02361C12.0339 4.79741 11.6959 4.4823 11.4447 4.10373C11.1935 3.72515 11.0362 3.29372 10.9856 2.84427L10.8739 1.86827C10.4262 1.79621 9.97363 1.7571 9.52003 1.75127L9.51901 1.75027ZM9.50682 6.25027C10.5169 6.25027 11.4857 6.64536 12.1999 7.34862C12.9142 8.05188 13.3154 9.00571 13.3154 10.0003C13.3154 10.9948 12.9142 11.9487 12.1999 12.6519C11.4857 13.3552 10.5169 13.7503 9.50682 13.7503C8.49672 13.7503 7.52799 13.3552 6.81374 12.6519C6.09949 11.9487 5.69823 10.9948 5.69823 10.0003C5.69823 9.00571 6.09949 8.05188 6.81374 7.34862C7.52799 6.64536 8.49672 6.25027 9.50682 6.25027ZM9.50682 7.75027C8.90076 7.75027 8.31953 7.98732 7.89098 8.40928C7.46243 8.83124 7.22167 9.40353 7.22167 10.0003C7.22167 10.597 7.46243 11.1693 7.89098 11.5913C8.31953 12.0132 8.90076 12.2503 9.50682 12.2503C10.1129 12.2503 10.6941 12.0132 11.1227 11.5913C11.5512 11.1693 11.792 10.597 11.792 10.0003C11.792 9.40353 11.5512 8.83124 11.1227 8.40928C10.6941 7.98732 10.1129 7.75027 9.50682 7.75027Z" fill="#0E7EE4"/>
</g>
</svg>
