<svg width="24" height="24" viewBox="0 0 24 24" fill="none" xmlns="http://www.w3.org/2000/svg">
<g id="Icon. - Store">
<path id="Vector" d="M21 8.96053C21.0001 8.80292 20.9556 8.64829 20.8713 8.51329L18.4332 4.59237C18.2726 4.33605 18.0463 4.12392 17.7761 3.97639C17.506 3.82886 17.201 3.7509 16.8906 3.75H7.1094C6.4812 3.75 5.8899 4.07305 5.5668 4.59324L3.1287 8.51329C3.04441 8.64829 2.99992 8.80292 3 8.96053C3 9.83329 3.3474 10.6227 3.9 11.2341V19.3816C3.9 19.6119 3.99482 19.8328 4.1636 19.9956C4.33239 20.1585 4.56131 20.25 4.8 20.25H12C12.2387 20.25 12.4676 20.1585 12.6364 19.9956C12.8052 19.8328 12.9 19.6119 12.9 19.3816V15.0395H16.5V19.3816C16.5 19.6119 16.5948 19.8328 16.7636 19.9956C16.9324 20.1585 17.1613 20.25 17.4 20.25H19.2C19.4387 20.25 19.6676 20.1585 19.8364 19.9956C20.0052 19.8328 20.1 19.6119 20.1 19.3816V11.2341C20.6526 10.6227 21 9.83329 21 8.96053ZM19.1856 9.1785C19.1302 9.59787 18.9184 9.9834 18.5897 10.263C18.2611 10.5425 17.8381 10.697 17.4 10.6974C16.4073 10.6974 15.6 9.9184 15.6 8.96053C15.6 8.90147 15.5775 8.84937 15.5649 8.79379L15.5829 8.79032L14.898 5.48684H16.8906L19.1856 9.1785ZM10.2063 9.01697L10.9371 5.48684H13.062L13.7937 9.01697C13.7622 9.94879 12.972 10.6974 12 10.6974C11.028 10.6974 10.2378 9.94879 10.2063 9.01697ZM7.1094 5.48684H9.102L8.418 8.79032L8.436 8.79379C8.4225 8.84937 8.4 8.90147 8.4 8.96053C8.4 9.9184 7.5927 10.6974 6.6 10.6974C6.16187 10.697 5.73891 10.5425 5.41025 10.263C5.0816 9.9834 4.86977 9.59787 4.8144 9.1785L7.1094 5.48684ZM10.2 15.9079H6.6V13.3026H10.2V15.9079Z" fill="#0E7EE4"/>
</g>
</svg>
