<svg width="16" height="16" viewBox="0 0 16 16" fill="none" xmlns="http://www.w3.org/2000/svg">
<g id="Group 1734">
<path id="Vector (Stroke)" fill-rule="evenodd" clip-rule="evenodd" d="M0.400024 7.99999C0.400024 3.80252 3.80255 0.399994 8.00002 0.399994C12.1975 0.399994 15.6 3.80252 15.6 7.99999C15.6 12.1975 12.1975 15.6 8.00002 15.6C3.80255 15.6 0.400024 12.1975 0.400024 7.99999ZM8.00002 1.59999C4.4653 1.59999 1.60002 4.46526 1.60002 7.99999C1.60002 11.5347 4.4653 14.4 8.00002 14.4C11.5348 14.4 14.4 11.5347 14.4 7.99999C14.4 4.46526 11.5348 1.59999 8.00002 1.59999Z" fill="#0E7EE4"/>
<path id="Vector (Stroke)_2" fill-rule="evenodd" clip-rule="evenodd" d="M8.00344 3.20016C8.33481 3.20016 8.60344 3.46879 8.60344 3.80016V7.75481L10.6535 9.80507C10.8878 10.0394 10.8877 10.4193 10.6534 10.6536C10.4191 10.8879 10.0392 10.8879 9.80489 10.6536L7.57915 8.42755C7.46665 8.31503 7.40344 8.16243 7.40344 8.00331V3.80016C7.40344 3.46879 7.67207 3.20016 8.00344 3.20016Z" fill="#0E7EE4"/>
</g>
</svg>
