<?xml version="1.0" encoding="utf-8"?>
<!-- Uploaded to: SVG Repo, www.svgrepo.com, Generator: SVG Repo Mixer Tools -->
<svg width="800px" height="800px" viewBox="0 -5.35 69.269 69.269" xmlns="http://www.w3.org/2000/svg">
  <g id="cloudy" transform="translate(-1472.591 -1009.771)">
    <path id="Path_54" data-name="Path 54" d="M1528.828,1040.064a18.312,18.312,0,0,0-17.907-15.747c-.039,0-.12-.007-.217-.007a18.305,18.305,0,0,0-17.331,12.427,14.161,14.161,0,0,0-9.763,8.284,11.655,11.655,0,0,0-.157,23.265v.051h44.919v-.061a14.159,14.159,0,0,0,.456-28.212Z" fill="#f4f4f4"/>
    <path id="Path_55" data-name="Path 55" d="M1540.327,1041.073h-1.274a17.545,17.545,0,0,0-7.387-3.924,21.669,21.669,0,0,0-40.015-4.843,22.828,22.828,0,0,1,3.067-6.871l.809-1.217-1.04-1.033-1.906-1.9a1.489,1.489,0,0,1-.442-1.068,1.552,1.552,0,0,1,.442-1.086l2.192-2.192a1.562,1.562,0,0,1,2.163,0l1.9,1.913,1.032,1.033,1.219-.819a22.309,22.309,0,0,1,8.039-3.334l1.429-.293v-4.14a1.541,1.541,0,0,1,1.536-1.529h3.087a1.534,1.534,0,0,1,1.527,1.529v4.14l1.432.293a22.208,22.208,0,0,1,8.042,3.342l1.22.811,1.036-1.033,1.894-1.913a1.514,1.514,0,0,1,1.073-.435,1.568,1.568,0,0,1,1.1.445l2.18,2.182a1.545,1.545,0,0,1,0,2.164l-1.909,1.9-1.033,1.037.81,1.211a22.633,22.633,0,0,1,3.337,8.055l.3,1.426h4.135a1.539,1.539,0,0,1,1.533,1.529v3.088a1.539,1.539,0,0,1-1.533,1.531Z" fill="#fdb53f"/>
  </g>
</svg>