<?xml version="1.0" encoding="utf-8"?>
<!-- Uploaded to: SVG Repo, www.svgrepo.com, Generator: SVG Repo Mixer Tools -->
<svg width="800px" height="800px" viewBox="-0.94 0 71.143 71.143" xmlns="http://www.w3.org/2000/svg">
  <g id="cloudy_rainy" data-name="cloudy rainy" transform="translate(-870.38 -52.955)">
    <path id="Path_51" data-name="Path 51" d="M938.116,84.258h-1.269a17.444,17.444,0,0,0-7.392-3.914A21.767,21.767,0,0,0,908.78,64.151h-.033a21.6,21.6,0,0,0-19.3,11.339,22.584,22.584,0,0,1,3.044-6.861l.81-1.215-1.026-1.031-1.9-1.9a1.528,1.528,0,0,1-.449-1.076,1.572,1.572,0,0,1,.441-1.084l2.189-2.193a1.481,1.481,0,0,1,1.055-.444,1.549,1.549,0,0,1,1.117.444l1.91,1.907,1.022,1.033,1.227-.81a22.269,22.269,0,0,1,8.036-3.338l1.436-.294V54.475a1.52,1.52,0,0,1,1.513-1.52h3.1a1.527,1.527,0,0,1,1.527,1.52v4.151l1.422.294a22.849,22.849,0,0,1,8.067,3.338l1.216.81,1.022-1.033,1.9-1.907a1.5,1.5,0,0,1,1.07-.444,1.523,1.523,0,0,1,1.082.444l2.193,2.193a1.52,1.52,0,0,1-.005,2.168l-1.9,1.894-1.028,1.031.809,1.215a22.418,22.418,0,0,1,3.336,8.049l.289,1.427h4.143a1.536,1.536,0,0,1,1.53,1.53v3.1a1.542,1.542,0,0,1-1.535,1.528Z" fill="#fdb53f"/>
    <path id="Path_52" data-name="Path 52" d="M926.617,83.243A18.3,18.3,0,0,0,908.712,67.5c-.041,0-.112-.009-.219-.009a18.33,18.33,0,0,0-17.339,12.43A14.21,14.21,0,0,0,881.4,88.2a11.65,11.65,0,0,0-5.81,21.34,9.221,9.221,0,0,1,2.2-3.462,9.386,9.386,0,0,1,3.757-2.3l.036-.013.04-.015.924-.241,10.889-2.927a3.052,3.052,0,0,1,.8-.117,2.522,2.522,0,0,1,2.551,2.567,3.428,3.428,0,0,1-.1.766l-2.066,7.714h15.737a9.45,9.45,0,0,1,5.854-5.48l.041-.013.04-.01.925-.251,10.883-2.924a3.053,3.053,0,0,1,.8-.114,2.518,2.518,0,0,1,2.556,2.573,3.09,3.09,0,0,1-.1.78l-1.214,4.495a14.149,14.149,0,0,0-3.528-27.33Z" fill="#f4f4f4"/>
    <path id="Path_53" data-name="Path 53" d="M899.482,124.1a3.193,3.193,0,0,1-2.258-.932,3.164,3.164,0,0,1,1.289-5.252l.454-.117,5-1.342-1.356,4.977-.159.584a3.04,3.04,0,0,1-.739,1.157,3.134,3.134,0,0,1-2.234.925Zm19.688-2.95a6.113,6.113,0,0,1-1.914-11.928l.833-.213,9.711-2.617-2.61,9.712-.254.972a6.145,6.145,0,0,1-1.449,2.287,6.066,6.066,0,0,1-4.317,1.787ZM884.488,118.9h-.005a6.124,6.124,0,0,1-4.323-10.458,5.927,5.927,0,0,1,2.432-1.477l.815-.218,9.732-2.6-2.622,9.7-.251.955a6.007,6.007,0,0,1-1.45,2.312,6.1,6.1,0,0,1-4.328,1.792Z" fill="#27b7ff"/>
  </g>
</svg>