<?xml version="1.0" encoding="utf-8"?>
<!-- Uploaded to: SVG Repo, www.svgrepo.com, Generator: SVG Repo Mixer Tools -->
<svg width="800px" height="800px" viewBox="0 0 67.987 67.987" xmlns="http://www.w3.org/2000/svg">
  <g id="sun" transform="translate(-68.075 -54.536)">
    <g id="Group_17" data-name="Group 17">
      <path id="Path_50" data-name="Path 50" d="M132.359,83.07h-3.1a27.475,27.475,0,0,0-4.1-9.915l2.186-2.185a3.707,3.707,0,0,0,0-5.237l-2.483-2.487-.279.281.279-.281a3.712,3.712,0,0,0-5.239,0l-2.186,2.185a27.517,27.517,0,0,0-9.912-4.1V58.24a3.71,3.71,0,0,0-3.706-3.7h-3.508a3.709,3.709,0,0,0-3.7,3.7v3.094a27.486,27.486,0,0,0-9.912,4.1l-2.191-2.185a3.7,3.7,0,0,0-5.229,0h0l-2.484,2.487a3.7,3.7,0,0,0,0,5.237l2.183,2.185a27.579,27.579,0,0,0-4.1,9.915h-3.1a3.714,3.714,0,0,0-3.7,3.7v3.511a3.721,3.721,0,0,0,3.7,3.709h3.1a27.644,27.644,0,0,0,4.1,9.907l-2.183,2.183a3.7,3.7,0,0,0,0,5.236l2.484,2.488a3.682,3.682,0,0,0,2.615,1.081H81.9a3.706,3.706,0,0,0,2.609-1.081l2.191-2.2a27.543,27.543,0,0,0,9.907,4.112v3.1a3.715,3.715,0,0,0,3.706,3.7h3.508a3.709,3.709,0,0,0,3.706-3.7v-3.1a27.522,27.522,0,0,0,9.912-4.112l2.186,2.193a3.719,3.719,0,0,0,5.239,0l2.483-2.485a3.706,3.706,0,0,0,0-5.236L125.16,103.9a27.5,27.5,0,0,0,4.1-9.907h3.1a3.719,3.719,0,0,0,3.7-3.709V86.773A3.719,3.719,0,0,0,132.359,83.07Z" fill="#fdb53f"/>
    </g>
  </g>
</svg>