<?xml version="1.0" encoding="utf-8"?>
<!-- Uploaded to: SVG Repo, www.svgrepo.com, Generator: SVG Repo Mixer Tools -->
<svg width="800px" height="800px" viewBox="0 -2.74 60.551 60.551" xmlns="http://www.w3.org/2000/svg">
  <g id="water_droplet" data-name="water droplet" transform="translate(-272.53 -60.991)">
    <path id="Path_45" data-name="Path 45" d="M285.627,90.974a4.947,4.947,0,0,1-4.933-4.914,4.972,4.972,0,0,1,1.445-3.493,5.026,5.026,0,0,1,1.967-1.193l.732-.193L292.6,79.1l-2.1,7.757-.239.9a4.715,4.715,0,0,1-1.141,1.777,4.913,4.913,0,0,1-3.488,1.446Z" fill="#27b7ff"/>
    <path id="Path_46" data-name="Path 46" d="M323.841,111.357a6.548,6.548,0,0,1-4.635-11.166,6.832,6.832,0,0,1,2.6-1.581l.884-.229,10.387-2.787-2.8,10.367-.269,1.015a6.525,6.525,0,0,1-6.174,4.381Z" fill="#27b7ff"/>
    <path id="Path_47" data-name="Path 47" d="M280.114,116.061a7.582,7.582,0,0,1-2.358-14.8l1.024-.272,12.073-3.236L287.6,109.794l-.317,1.163a7.807,7.807,0,0,1-1.8,2.873,7.532,7.532,0,0,1-5.373,2.231Z" fill="#27b7ff"/>
    <path id="Path_48" data-name="Path 48" d="M303.154,106.357a3.344,3.344,0,0,1-2.417-1,3.388,3.388,0,0,1-1.006-2.4,3.4,3.4,0,0,1,2.363-3.249l.509-.133,5.374-1.457-1.452,5.381-.165.625a3.182,3.182,0,0,1-.795,1.234,3.386,3.386,0,0,1-2.411,1Z" fill="#27b7ff"/>
    <path id="Path_49" data-name="Path 49" d="M311.113,87.984a11.206,11.206,0,0,1-7.935-19.119,11.4,11.4,0,0,1,4.452-2.7l1.515-.4,17.786-4.772-4.787,17.758-.463,1.742a11.151,11.151,0,0,1-10.568,7.493Z" fill="#27b7ff"/>
  </g>
</svg>